<svg width="24" height="24" viewBox="0 0 24 24" fill="none" xmlns="http://www.w3.org/2000/svg">
<path opacity="0.4" d="M17 20.5H7C4 20.5 2 19 2 15.5V8.5C2 5 4 3.5 7 3.5H17C20 3.5 22 5 22 8.5V15.5C22 19 20 20.5 17 20.5Z" fill="#491FEF"/>
<path d="M12 12.87C11.16 12.87 10.31 12.61 9.66003 12.08L6.53002 9.57997C6.21002 9.31997 6.15003 8.84997 6.41003 8.52997C6.67003 8.20997 7.14003 8.14997 7.46003 8.40997L10.59 10.91C11.35 11.52 12.64 11.52 13.4 10.91L16.53 8.40997C16.85 8.14997 17.33 8.19997 17.58 8.52997C17.84 8.84997 17.79 9.32997 17.46 9.57997L14.33 12.08C13.69 12.61 12.84 12.87 12 12.87Z" fill="#491FEF"/>
</svg>
