<svg width="82" height="82" viewBox="0 0 82 82" fill="none" xmlns="http://www.w3.org/2000/svg">
<path opacity="0.4" d="M55.3158 6.83331H26.6842C14.2475 6.83331 6.83334 14.2475 6.83334 26.6841V55.2816C6.83334 67.7525 14.2475 75.1666 26.6842 75.1666H55.2817C67.7183 75.1666 75.1325 67.7525 75.1325 55.3158V26.6841C75.1667 14.2475 67.7525 6.83331 55.3158 6.83331Z" fill="#491FEF"/>
<path d="M54.6667 38.4375H43.5625V27.3333C43.5625 25.9325 42.4008 24.7708 41 24.7708C39.5992 24.7708 38.4375 25.9325 38.4375 27.3333V38.4375H27.3333C25.9325 38.4375 24.7708 39.5991 24.7708 41C24.7708 42.4008 25.9325 43.5625 27.3333 43.5625H38.4375V54.6666C38.4375 56.0675 39.5992 57.2291 41 57.2291C42.4008 57.2291 43.5625 56.0675 43.5625 54.6666V43.5625H54.6667C56.0675 43.5625 57.2292 42.4008 57.2292 41C57.2292 39.5991 56.0675 38.4375 54.6667 38.4375Z" fill="#491FEF"/>
</svg>
